<?xml version="1.0" encoding="UTF-8"?>
<svg version="1.1" xmlns="http://www.w3.org/2000/svg" width="48" height="48">
<path d="M0 0 C4.25662554 3.08107639 7.4684332 7.12763904 8.75390625 12.26953125 C9.52614078 19.12459776 8.85521494 24.60341555 4.75390625 30.26953125 C0.1821785 35.19196688 -4.4258837 37.33061673 -11.05859375 37.64453125 C-16.93937652 37.50451261 -21.44629977 35.86984882 -25.78125 31.84375 C-30.5129015 26.5051228 -31.72452185 21.80101126 -31.55859375 14.83203125 C-30.884261 9.30250271 -28.4552296 5.06971496 -24.30859375 1.39453125 C-16.69320478 -3.8896162 -8.21243567 -4.69519049 0 0 Z M-16.24609375 7.26953125 C-16.82954851 10.22699617 -16.82954851 10.22699617 -16.24609375 13.26953125 C-14.68811493 15.41735796 -14.68811493 15.41735796 -12.24609375 16.26953125 C-9.85345968 15.60181942 -8.0251199 15.0485574 -6.24609375 13.26953125 C-5.91268904 10.31148552 -5.91268904 10.31148552 -6.24609375 7.26953125 C-10.34522983 4.53677386 -12.14695767 4.53677386 -16.24609375 7.26953125 Z M-18.24609375 21.26953125 C-18.82359375 21.68203125 -19.40109375 22.09453125 -19.99609375 22.51953125 C-21.92535417 25.22049584 -21.94031588 28.0282858 -22.24609375 31.26953125 C-16.97636501 34.59778098 -12.30711314 35.03451428 -6.24609375 34.26953125 C-2.74131725 32.93967556 -2.74131725 32.93967556 -0.24609375 31.26953125 C-0.48964106 27.12922692 -0.87884031 24.76640355 -3.37109375 21.39453125 C-8.64811364 17.49412524 -13.05102996 17.22892608 -18.24609375 21.26953125 Z " fill="#B7B6FF" transform="translate(35.24609375,6.73046875)"/>
<path d="M0 0 C2.80151172 2.03915344 4.14177956 4.24044605 5.765625 7.28515625 C5.765625 7.61515625 5.765625 7.94515625 5.765625 8.28515625 C2.135625 8.28515625 -1.494375 8.28515625 -5.234375 8.28515625 C-5.564375 6.96515625 -5.894375 5.64515625 -6.234375 4.28515625 C-10.33661085 3.26975513 -10.33661085 3.26975513 -14.234375 4.28515625 C-14.63269531 5.28289063 -14.63269531 5.28289063 -15.0390625 6.30078125 C-16.234375 8.28515625 -16.234375 8.28515625 -18.6171875 8.89453125 C-19.52210937 8.9409375 -20.42703125 8.98734375 -21.359375 9.03515625 C-22.26945312 9.091875 -23.17953125 9.14859375 -24.1171875 9.20703125 C-25.16519531 9.24570312 -25.16519531 9.24570312 -26.234375 9.28515625 C-24.99186716 4.31512487 -23.5341641 2.08501892 -19.234375 -0.71484375 C-12.68882584 -4.25297843 -6.29333395 -3.45637829 0 0 Z " fill="#84C2FF" transform="translate(34.234375,9.71484375)"/>
<path d="M0 0 C4.27835099 3.09680194 7.37368432 7.12506768 8.75390625 12.26953125 C8.8303679 14.60161145 8.84533924 16.93799003 8.75390625 19.26953125 C7.76390625 19.59953125 6.77390625 19.92953125 5.75390625 20.26953125 C5.66753906 19.54507812 5.58117188 18.820625 5.4921875 18.07421875 C4.55443937 11.62182334 3.63979365 7.7009175 -1.24609375 3.26953125 C-6.49672805 0.7235022 -11.51215889 0.5791015 -17.24609375 1.26953125 C-21.31253117 3.30274996 -23.81669852 5.4681635 -26.24609375 9.26953125 C-27.02873314 12.07217544 -27.02873314 12.07217544 -27.43359375 15.01953125 C-27.59214844 16.004375 -27.75070313 16.98921875 -27.9140625 18.00390625 C-28.02363281 18.7515625 -28.13320313 19.49921875 -28.24609375 20.26953125 C-28.90609375 20.26953125 -29.56609375 20.26953125 -30.24609375 20.26953125 C-30.57609375 20.92953125 -30.90609375 21.58953125 -31.24609375 22.26953125 C-31.75691142 15.34511394 -31.40214914 10.01128162 -27.24609375 4.26953125 C-19.87986165 -3.66178167 -9.43889056 -5.39637581 0 0 Z " fill="#2064FF" transform="translate(35.24609375,6.73046875)"/>
<path d="M0 0 C0.66 0 1.32 0 2 0 C1.40957946 6.19941562 -0.88213007 10.04504314 -5.4375 14.25 C-11.11674783 18.12851072 -16.216301 18.82728037 -23 18 C-28.86439264 16.20810225 -32.69563065 13.10675264 -36 8 C-36.8125 4.125 -36.8125 4.125 -37 1 C-36.34 1 -35.68 1 -35 1 C-34.76925781 1.53109375 -34.53851563 2.0621875 -34.30078125 2.609375 C-32.18810777 7.18544245 -30.36183544 10.20395164 -26 13 C-21.13325248 14.62224917 -15.87313597 14.89988787 -10.9296875 13.3515625 C-6.05550239 10.88281939 -4.30874472 7.7029985 -2 3 C-1.34 2.01 -0.68 1.02 0 0 Z " fill="#B926FF" transform="translate(42,26)"/>
<path d="M0 0 C2.49231085 0.3665163 3.67346311 0.58678974 5.265625 2.6015625 C7.5775304 7.35381248 8.44026211 10.71685468 8 16 C7.01 16.33 6.02 16.66 5 17 C4.89042969 16.25234375 4.78085937 15.5046875 4.66796875 14.734375 C4.50941406 13.74953125 4.35085937 12.7646875 4.1875 11.75 C3.96126953 10.28820312 3.96126953 10.28820312 3.73046875 8.796875 C2.96331725 5.85954628 1.88241663 4.33110223 0 2 C0 1.34 0 0.68 0 0 Z " fill="#3E53FF" transform="translate(36,10)"/>
<path d="M0 0 C0.99 0.33 1.98 0.66 3 1 C2.67 4.3 2.34 7.6 2 11 C1.34 11 0.68 11 0 11 C-0.33 11.66 -0.66 12.32 -1 13 C-1.02708567 11.39592672 -1.04643483 9.7917215 -1.0625 8.1875 C-1.07410156 7.29417969 -1.08570313 6.40085937 -1.09765625 5.48046875 C-1 3 -1 3 0 0 Z " fill="#6548FF" transform="translate(5,16)"/>
<path d="M0 0 C0.721875 0.12375 1.44375 0.2475 2.1875 0.375 C-0.8125 3.375 -3.8125 6.375 -6.8125 9.375 C-7.1425 8.385 -7.4725 7.395 -7.8125 6.375 C-3.91006098 0.52134146 -3.91006098 0.52134146 0 0 Z " fill="#385FFF" transform="translate(13.8125,7.625)"/>
<path d="M0 0 C0.66 0.33 1.32 0.66 2 1 C2 1.66 2 2.32 2 3 C-0.40545638 4.20272819 -1.94996953 4.10071472 -4.625 4.0625 C-5.85089844 4.04896484 -5.85089844 4.04896484 -7.1015625 4.03515625 C-8.04128906 4.01775391 -8.04128906 4.01775391 -9 4 C-9 3.34 -9 2.68 -9 2 C-6.94921875 1.77213542 -4.8984375 1.54427083 -2.84765625 1.31640625 C-0.98859771 1.18113386 -0.98859771 1.18113386 0 0 Z " fill="#C520FF" transform="translate(29,40)"/>
<path d="M0 0 C0.66 0 1.32 0 2 0 C1.38461538 5.53846154 1.38461538 5.53846154 -0.5625 7.875 C-1.036875 8.24625 -1.51125 8.6175 -2 9 C-3 6 -3 6 -1.5625 2.8125 C-1.046875 1.884375 -0.53125 0.95625 0 0 Z " fill="#9338FF" transform="translate(42,26)"/>
<path d="M0 0 C0.99 0.33 1.98 0.66 3 1 C3 3.31 3 5.62 3 8 C2.01 8.33 1.02 8.66 0 9 C0 6.03 0 3.06 0 0 Z " fill="#694AFF" transform="translate(41,18)"/>
<path d="M0 0 C0.66 0 1.32 0 2 0 C2.66 2.31 3.32 4.62 4 7 C3.01 7 2.02 7 1 7 C0.67 4.69 0.34 2.38 0 0 Z " fill="#9536FF" transform="translate(5,27)"/>
</svg>
